<svg id="Layer_1" data-name="Layer 1" xmlns="http://www.w3.org/2000/svg" xmlns:xlink="http://www.w3.org/1999/xlink" viewBox="0 0 400 300" data-imageid="digital-content-isometric" imageName="Digital content" class="illustrations_image" style="width: 158px;"><defs><linearGradient id="linear-gradient" x1="169.86" y1="247.72" x2="199.82" y2="228.78" gradientUnits="userSpaceOnUse"><stop offset="0" stop-color="#fff" stop-opacity="0"/><stop offset="0.98" stop-color="#f15a24"/></linearGradient><linearGradient id="linear-gradient-2" x1="281.51" y1="217.43" x2="316.29" y2="197.11" xlink:href="#linear-gradient"/></defs><title>61-70</title><path d="M64.09,212.23l125.53,72.47a10.52,10.52,0,0,0,10.46,0l144.82-82.3a5.87,5.87,0,0,0,0-10.18l-129-74.6a4.07,4.07,0,0,0-4.11,0L64.05,205.21A4.07,4.07,0,0,0,64.09,212.23Z" fill="#ffd348"/><path d="M220.09,228.87a.67.67,0,0,1,0-.73c.14-.25-3.62-1-3.48-1.26.18-.62-2.24-.75-2.07-1.37-6.34-2.81-7.64-3.78-12.46-8.44l-50.92,28.37,20.93,11.94,47.66-27.08Q219.9,229.58,220.09,228.87Z" opacity="0.32" fill="url(#linear-gradient)"/><path d="M333.37,198.38a.67.67,0,0,1,0-.73l.42-.76c.18-.62.36-1.23.52-1.85-6.34-2.81-14.14-3.8-19-8.46l-50.92,28.37,20.93,11.94L333,199.8Q333.18,199.08,333.37,198.38Z" opacity="0.32" fill="url(#linear-gradient-2)"/><path d="M176.94,38.64l23.52-13.57a3.56,3.56,0,0,1,5.34,3.08V43.42A3.56,3.56,0,0,1,204,46.49L180.53,60.34a3.56,3.56,0,0,1-5.37-3.07V41.72A3.56,3.56,0,0,1,176.94,38.64Z" fill="#ed1c24"/><path d="M188.27,37c0,2.61,0,10,0,12.93a.55.55,0,0,0,.9.42l9.58-7.94a.55.55,0,0,0-.1-.91l-9.56-5A.55.55,0,0,0,188.27,37Z" fill="#fff"/><path d="M216.68,121.53c1,.8,4.9,27.62,4.29,29.54s-6.58,4.85-6.58,4.85" fill="#159e97"/><path d="M181.08,121.27l-.38-.68a.62.62,0,0,0,.26-.78c-.32-.73-.66-1.46-1-2.19a.59.59,0,0,0,0-.27,16.36,16.36,0,0,1-.56-5c.15-1.36.55-2.66.69-4,0-.49-.51-.65-.87-.5a1.4,1.4,0,0,0-.69.72,4.7,4.7,0,0,0-.79,2.05,3.14,3.14,0,0,0-.23-.92l-.27-1.11a8.09,8.09,0,0,0-.58-1.7c-.26-.51-.84-.74-1.13-.41-.44.5,0,1.42.07,2s.18,1.1.33,1.69c-.23-.55-.69-1.5-1-2.17-.23-.51-.89-2.17-1.63-1.95s-.38,1.36-.18,1.9l.57,1.54c.17.46.36,1.06.56,1.48,0,0-.77-1.12-1.15-1.72s-.63-1.16-1.33-.95c-.45.14-.42.8-.21,1.19.55,1,1.17,2.06,1.81,3-.41-.38-.81-.78-1.24-1.15a.6.6,0,0,0-1,.5.5.5,0,0,0,.09.31l5.31,7.63a11.17,11.17,0,0,0,2.16,3.28c.51.54,1.32-.28.81-.81l-.07-.08a.57.57,0,0,0,0-.09.61.61,0,0,0,.41-.31l0,0a.58.58,0,0,0,.18.08A.57.57,0,0,0,181.08,121.27Z" fill="#ffb7a2"/><path d="M177,111a3.48,3.48,0,0,0-1.3,3c0,.26.43.26.41,0a3.11,3.11,0,0,1,1.18-2.73C177.49,111.17,177.2,110.88,177,111Z" fill="#42342d"/><path d="M176.44,110.42q-.44-1.61-.74-3.24c0-.26-.44-.15-.39.11q.3,1.64.74,3.24A.2.2,0,0,0,176.44,110.42Z" fill="#42342d"/><path d="M174.72,111.32a23.33,23.33,0,0,1-1.34-3.69.2.2,0,0,0-.39.11,24,24,0,0,0,1.38,3.79C174.48,111.77,174.83,111.56,174.72,111.32Z" fill="#42342d"/><path d="M174.09,112.92a15.32,15.32,0,0,1-2.18-3.3c-.12-.24-.47,0-.35.21a15.73,15.73,0,0,0,2.25,3.38C174,113.41,174.26,113.12,174.09,112.92Z" fill="#42342d"/><path d="M212.82,211.44s-.3,8.08,1.19,10.52,8.85,6.56,6.9,8.29-6.54.86-8.07-1A38.24,38.24,0,0,1,210.1,225l0,3.06s-3.07-1.83-3.07-1.95-.71-18.23-.71-18.23" fill="#42342d"/><path d="M201.65,214.84s-.3,8.06,1.19,10.49,9.25,8,7.29,9.73-6.54.14-8.44-2.22a27.85,27.85,0,0,1-2.78-4.44l0,3.05s-3.09-1.82-3.1-1.94-.71-18.18-.71-18.18" fill="#42342d"/><path d="M216.28,146.79c.39,1,4,60.17.19,67.7a19.14,19.14,0,0,1-10,2.12L205.18,221s-9.34,2.9-16.08.08c0,0-3.9-52.84,8-74.53" fill="#f679bd"/><path d="M216.4,146.13c.23-2.71.23-6.3.28-6.93q.17-2.42.31-4.84.17-2.93.29-5.87c.12-2.82.44-6.13-1.51-8.45s-6.49-3.21-9.5-2.82a12.51,12.51,0,0,0-7.79,4.81,180.81,180.81,0,0,0-1.36,24.55C202.94,148.29,211.84,149.93,216.4,146.13Z" fill="#27d9d3"/><path d="M205.84,117.68a14.33,14.33,0,0,0-6.8,2.11c-1.56,1-2.45,2.67-4.14,3.51-2.27,1.14-5.59,1.13-7.45-.79a41.41,41.41,0,0,1-2.83-3.45c-.7-.89-3.57-5.55-5.08-5-1.77.66-4.31,3.15-4.42,4.56s7.37,16.16,14,17.19a17.64,17.64,0,0,0,11.81-2.62" fill="#27d9d3"/><path d="M204.25,115.1v4.22a8.6,8.6,0,0,0,5.1,0v-3.79" fill="#fcaa97"/><path d="M213.07,105.4c.3.07,2.16,12.64-3.05,12.74s-6.22-4-6.38-5.06,1.5-4.24,2-5.43S211.79,105.09,213.07,105.4Z" fill="#ffb7a2"/><path d="M213.71,104.13c-1.57-2.84-7.66-3.49-11.9.4a6.22,6.22,0,0,0-1.71,4.26,8.94,8.94,0,0,0,5,7.43s0,0,0,0,0-.16,0-.23,0-.11,0-.17a11.1,11.1,0,0,1,.69-6.94c1-2,3.13-2.54,5.19-2.86a6.5,6.5,0,0,1,2-.2l.67,3.23A4.35,4.35,0,0,0,213.71,104.13Z" fill="#edb033"/><circle cx="198.12" cy="105.68" r="4.01" transform="translate(-6.85 13.99) rotate(-3.98)" fill="#edb033"/><path d="M213.68,108h-4.95l-.46-1.48-.43,1.84-1.41.09s-.07,7.59-1.15,7.76-2.6-3.1-2.76-5,.89-6,4.46-7.12C211.47,102.69,213.47,104.48,213.68,108Z" fill="#edb033"/><path d="M209.7,160.94q-.93,27.91-3.86,55.7c-.06.57.84.57.9,0q2.93-27.77,3.86-55.7C210.62,160.37,209.72,160.37,209.7,160.94Z" fill="#fff"/><path d="M116,119.26v96.31a5.91,5.91,0,0,0,8.92,5.09l138.45-81.71a3.18,3.18,0,0,0,1.57-2.74V41.91a5.35,5.35,0,0,0-8-4.65L117.62,116.49A3.18,3.18,0,0,0,116,119.26Zm135.06,11.32L131.78,199.31a3.18,3.18,0,0,1-4.77-2.76V124a3.18,3.18,0,0,1,1.6-2.76L247.91,53a3.18,3.18,0,0,1,4.76,2.76v72.06A3.18,3.18,0,0,1,251.08,130.58Z" fill="#2463eb" class="target-color"/><path d="M134.77,192.71l99.11-57.22L248,127.34a.75.75,0,0,0-.76-1.3l-99.11,57.22L134,191.42a.75.75,0,0,0,.76,1.3Z" fill="#b3b3b3"/><path d="M94.51,112.2v43.12a2.41,2.41,0,0,0,3.61,2.09l60-34.53a2.41,2.41,0,0,0,1.21-2.09V77.1A2.41,2.41,0,0,0,155.76,75L96.19,109.3A3.35,3.35,0,0,0,94.51,112.2Z" fill="#edb033"/><polygon points="102.98 111.64 102.98 149.52 152.9 120.81 152.9 82.91 102.98 111.64" fill="#fff"/><path d="M103,149.52l12-26.44a5.42,5.42,0,0,1,7.14-2.72l5.87,2.61,11.44-19.27a3.73,3.73,0,0,1,5.46-1.08l8.06,6.07v12.13Z" fill="#27d9d3"/><path d="M249,88.94l23.52-13.57a3.56,3.56,0,0,1,5.34,3.08V93.72a3.56,3.56,0,0,1-1.75,3.07l-23.52,13.85a3.56,3.56,0,0,1-5.37-3.07V92A3.56,3.56,0,0,1,249,88.94Z" fill="#f24c4c"/><polyline points="260.75 105.03 265.01 110.15 268.49 100.36" fill="#f24c4c"/><path d="M262.63,91.88s-2.88-4.66-5.72-1.13c-1.63,2,1.33,8.17,5.57,8.81,3.84.58,9.24-12.58,3.86-12.72C262.86,86.74,262.63,91.88,262.63,91.88Z" fill="#fff"/><path d="M331.34,174.48c-.72-1.55-3.92-2.72-7.75-2.72s-7.18,1.23-7.79,2.84c-4.51,6.31-8.94,16.58-3.4,23.46A14.12,14.12,0,0,0,323.28,203h.67a14.12,14.12,0,0,0,10.88-4.92C340.4,191.13,335.87,180.77,331.34,174.48Z" fill="#2463eb" class="target-color"/><ellipse cx="323.59" cy="175.14" rx="7.9" ry="3.39" opacity="0.5"/><path d="M332.82,146.39A65.38,65.38,0,0,0,324,173.47,189.11,189.11,0,0,0,320.87,139c-.08-.4-.69-.23-.62.17a188.21,188.21,0,0,1,3.11,38.57.3.3,0,0,0,.41.29c0,.09,0,.19,0,.28a.32.32,0,0,0,.64,0,64.71,64.71,0,0,1,9-31.6A.32.32,0,0,0,332.82,146.39Z" fill="#fe6162"/><path d="M327.82,156.91s4.89-15.73,15.39-21.54c0,0-2.13,3.12-1.13,5.67s2.55,7.09-2.41,9.65-7.8,0-7.38,5,2.39,7.38-.79,9.79-5.9,4.51-7,9.7C324.54,175.14,325.74,162.14,327.82,156.91Z" fill="#fe6162"/><path d="M323.16,155.25s-2-24.16-6.28-30.27a11.23,11.23,0,0,1-1.19,6.8c-1.84,3.49-3.82,4.71-2.76,9.26s5.38,3.64,5,8.2-4,3.7-2.21,9.44,7.93,9.53,7.93,9.53" fill="#fe6162"/><ellipse cx="134.86" cy="191.59" rx="3.28" ry="2.48" transform="translate(-86.52 268.28) rotate(-73.97)" fill="#3c6071"/></svg>