<svg xmlns="http://www.w3.org/2000/svg" width="128" height="128" viewBox="0 0 128 128">
  <title>DOCTOR</title>
  <g>
    <path d="M110.437,121.693V87.042a13,13,0,0,0-9.524-12.527L75.457,67.452H52.543L27.087,74.515a13,13,0,0,0-9.524,12.527v34.651Z" fill="#dff6fd"/>
    <polygon points="36.217 71.982 47.316 83.517 45.056 94.573 64 111.461 52.543 67.452 36.217 71.982" fill="#c8effe"/>
    <polygon points="91.783 71.982 80.684 83.517 82.944 94.573 64 111.461 75.457 67.452 91.783 71.982" fill="#c8effe"/>
    <polygon points="52.543 67.452 64 111.461 75.457 67.452 52.543 67.452" fill="#99e6fc"/>
    <path d="M85.849,41.39h3.036a4,4,0,0,1,4,4v1.6A5,5,0,0,1,89.222,51.8l-5,1.387H43.777l-5-1.387a5,5,0,0,1-3.663-4.818v-1.6a4,4,0,0,1,4-4H85.849Z" fill="#ffbd86"/>
    <path d="M88.885,41.39V27.963c0-9.337-3.439-14.3-17.228-16.537A143.77,143.77,0,0,1,49.566,6.307c-3.538,3.954-1.991,9.325-1.991,9.325s-8.46,1.257-8.46,11.909V41.39h3.036S48.6,38.878,49.7,28.7A34.077,34.077,0,0,0,64,31.587,34.077,34.077,0,0,0,78.3,28.7c1.1,10.178,7.549,12.69,7.549,12.69Z" fill="#9b8e99"/>
    <path d="M78.3,28.7A34.077,34.077,0,0,1,64,31.587,34.077,34.077,0,0,1,49.7,28.7c-1.1,10.178-7.549,12.69-7.549,12.69,0,15.006,6.8,23.516,12.813,28.108a14.912,14.912,0,0,0,18.072,0c6.013-4.592,12.813-13.1,12.813-28.108C85.849,41.39,79.4,38.878,78.3,28.7Z" fill="#fed2a4"/>
    <path d="M84.22,53.19v.02A31.525,31.525,0,0,1,73.04,69.5a14.941,14.941,0,0,1-18.08,0A31.53,31.53,0,0,1,43.78,53.19a49.48,49.48,0,0,1,40.44,0Z" fill="#9cf8d2"/>
    <g>
      <path d="M17.563,110.58a1.751,1.751,0,0,0-1.75,1.75v9.363a1.75,1.75,0,0,0,3.5,0V112.33A1.751,1.751,0,0,0,17.563,110.58Z"/>
      <path d="M17.563,96.844a1.751,1.751,0,0,0-1.75,1.75v4.5a1.75,1.75,0,0,0,3.5,0v-4.5A1.751,1.751,0,0,0,17.563,96.844Z"/>
      <path d="M35.115,98.33a1.751,1.751,0,0,0-1.75,1.75v21.613a1.75,1.75,0,0,0,3.5,0V100.08A1.751,1.751,0,0,0,35.115,98.33Z"/>
      <path d="M101.38,72.828l-22.6-6.271a32.833,32.833,0,0,0,3.375-4.5l.016-.028a34.2,34.2,0,0,0,3.43-7.4l4.092-1.135a6.771,6.771,0,0,0,4.946-6.505v-1.6a5.758,5.758,0,0,0-4-5.475V27.962c0-9.419-3.712-14.338-12.81-16.978a1.75,1.75,0,0,0-.976,3.362c8.6,2.5,10.286,6.882,10.286,13.616V39.64h-.9c-1.085-.559-5.34-3.236-6.192-11.127a1.752,1.752,0,0,0-2.532-1.373A32.805,32.805,0,0,1,64,29.837,32.823,32.823,0,0,1,50.5,27.142a1.749,1.749,0,0,0-2.535,1.371c-.854,7.911-5.119,10.575-6.195,11.127h-.9v-12.1c0-8.939,6.694-10.134,6.967-10.178a1.756,1.756,0,0,0,1.426-2.208,9.34,9.34,0,0,1,.943-6.8,149.691,149.691,0,0,0,17.654,4.194,1.75,1.75,0,1,0,.624-3.444A135.644,135.644,0,0,1,50.142,4.654a1.758,1.758,0,0,0-1.88.486,11.761,11.761,0,0,0-2.689,9.212c-3.523,1.266-8.208,5.029-8.208,13.189V39.915a5.758,5.758,0,0,0-4,5.475v1.6a6.771,6.771,0,0,0,4.945,6.505L42.4,54.626a34.186,34.186,0,0,0,3.484,7.485l.011.016a32.931,32.931,0,0,0,3.326,4.43l-22.6,6.271A14.8,14.8,0,0,0,15.813,87.042v1.9a1.75,1.75,0,0,0,3.5,0v-1.9A11.282,11.282,0,0,1,27.555,76.2l8.124-2.254,9.737,10.12L43.342,94.222a1.746,1.746,0,0,0,.55,1.656L62.25,112.246v9.447a1.75,1.75,0,0,0,3.5,0v-9.447L84.108,95.878a1.746,1.746,0,0,0,.55-1.656L82.583,84.067l9.738-10.12,8.124,2.254a11.282,11.282,0,0,1,8.242,10.841v34.651a1.75,1.75,0,0,0,3.5,0V87.042A14.8,14.8,0,0,0,101.38,72.828ZM64,104.516,55.527,71.967a16.6,16.6,0,0,0,16.946,0ZM45.957,54.151A49.768,49.768,0,0,1,64,50.623a49.964,49.964,0,0,1,18.042,3.53,30.949,30.949,0,0,1-2.257,4.985A89.4,89.4,0,0,0,64,57.791a89.4,89.4,0,0,0-15.785,1.347A30.974,30.974,0,0,1,45.957,54.151ZM64,61.291a89.3,89.3,0,0,1,13.693,1.044,29.876,29.876,0,0,1-5.719,5.772,13.169,13.169,0,0,1-15.948,0,29.848,29.848,0,0,1-5.719-5.772A89.3,89.3,0,0,1,64,61.291Zm27.135-14.3a3.26,3.26,0,0,1-2.381,3.132l-2.112.586a43.606,43.606,0,0,0,.906-7.564h1.337a2.253,2.253,0,0,1,2.25,2.25ZM51.091,31.169A38.431,38.431,0,0,0,64,33.337a38.431,38.431,0,0,0,12.909-2.168c1.389,6.94,5.222,10.08,7.16,11.259a39.888,39.888,0,0,1-1.027,8.348,51.457,51.457,0,0,0-38.084,0,39.821,39.821,0,0,1-1.027-8.348C45.869,41.249,49.7,38.109,51.091,31.169ZM36.865,46.986v-1.6a2.252,2.252,0,0,1,2.25-2.25h1.337a43.606,43.606,0,0,0,.906,7.564l-2.112-.586A3.26,3.26,0,0,1,36.865,46.986Zm10.107,46.95L49.03,83.867a1.752,1.752,0,0,0-.453-1.564l-9.064-9.42L51.3,69.614l9.552,36.695ZM79.423,82.3a1.749,1.749,0,0,0-.453,1.564l2.058,10.069L67.15,106.309,76.7,69.614l11.785,3.269Z"/>
      <path d="M92.885,98.33a1.75,1.75,0,0,0-1.75,1.75v21.613a1.75,1.75,0,0,0,3.5,0V100.08A1.751,1.751,0,0,0,92.885,98.33Z"/>
      <path d="M53.906,44.217a3.65,3.65,0,0,1,3.813,0,1.75,1.75,0,0,0,2.024-2.856,7.126,7.126,0,0,0-7.858,0,1.739,1.739,0,0,0-.406,2.415A1.761,1.761,0,0,0,53.906,44.217Z"/>
      <path d="M70.279,44.217a3.65,3.65,0,0,1,3.813,0,1.75,1.75,0,0,0,2.023-2.856,7.126,7.126,0,0,0-7.858,0,1.739,1.739,0,0,0-.405,2.415A1.761,1.761,0,0,0,70.279,44.217Z"/>
    </g>
  </g>
</svg>
